<mxfile host="app.diagrams.net" modified="2024-04-23T06:30:44.657Z" agent="Mozilla/5.0 (Windows NT 10.0; Win64; x64) AppleWebKit/537.36 (KHTML, like Gecko) Chrome/123.0.0.0 Safari/537.36" version="24.2.8" etag="yoh0TqcU2GPp-TBLsfGi" type="github">
  <diagram name="Page-1" id="6WAGGkbjDyH7UJWQV1Ws">
    <mxGraphModel>
      <root>
        <mxCell id="0" />
        <mxCell id="1" parent="0" />
      </root>
    </mxGraphModel>
  </diagram>
</mxfile>
